# xmcd
#
# Track frame offsets: 
#        193
#        32289
#        58922
#        80820
#        102861
#        123465
#        145479
#        170679
#        192252
#        205910
#        222103
#
# Disc length: 3206 seconds
#
# Revision: 1
# Processed by: cddbd v1.5.2PL0 Copyright (c) Steve Scherf et al.
# Submitted via: ExactAudioCopyFreeDBPlugin 1.0
#
DISCID=a30c840b
DTITLE=Melba Moore - Burn
DYEAR=1979
DGENRE=Funk
TTITLE0=Burn
TTITLE1=Hot And Tasty
TTITLE2=If You Believe In Love
TTITLE3=Night People
TTITLE4=I Don't Wanna Lose Your Love
TTITLE5=Can't Give It Up
TTITLE6=Miss Thing
TTITLE7=Need Love
TTITLE8=Miss Thing (7" Version)
TTITLE9=Hot And Tasty (7" Version)
TTITLE10=Burn (7" Version)
EXTD=
EXTT0=
EXTT1=
EXTT2=
EXTT3=
EXTT4=
EXTT5=
EXTT6=
EXTT7=
EXTT8=
EXTT9=
EXTT10=
PLAYORDER=
